<?xml version="1.0" encoding="UTF-8" standalone="no"?>
<svg
   xmlns:dc="http://purl.org/dc/elements/1.1/"
   xmlns:cc="http://creativecommons.org/ns#"
   xmlns:rdf="http://www.w3.org/1999/02/22-rdf-syntax-ns#"
   xmlns:svg="http://www.w3.org/2000/svg"
   xmlns="http://www.w3.org/2000/svg"
   xmlns:sodipodi="http://sodipodi.sourceforge.net/DTD/sodipodi-0.dtd"
   xmlns:inkscape="http://www.inkscape.org/namespaces/inkscape"
   viewBox="0 0 325.82197 515.61768"
   version="1.1"
   id="svg3965"
   sodipodi:docname="cover_image.svg"
   width="325.82196"
   height="515.61768"
   inkscape:version="0.92.4 5da689c313, 2019-01-14">
  <metadata
     id="metadata3969">
    <rdf:RDF>
      <cc:Work
         rdf:about="">
        <dc:format>image/svg+xml</dc:format>
        <dc:type
           rdf:resource="http://purl.org/dc/dcmitype/StillImage" />
        <dc:title>KWasm cover Rikard</dc:title>
      </cc:Work>
    </rdf:RDF>
  </metadata>
  <sodipodi:namedview
     pagecolor="#ffffff"
     bordercolor="#666666"
     borderopacity="1"
     objecttolerance="10"
     gridtolerance="10"
     guidetolerance="10"
     inkscape:pageopacity="0"
     inkscape:pageshadow="2"
     inkscape:window-width="1434"
     inkscape:window-height="1737"
     id="namedview3967"
     showgrid="false"
     inkscape:zoom="1.1367437"
     inkscape:cx="260.6264"
     inkscape:cy="259.00241"
     inkscape:window-x="1440"
     inkscape:window-y="28"
     inkscape:window-maximized="0"
     inkscape:current-layer="svg3965" />
  <defs
     id="defs3863">
    <style
       id="style3861">.a{fill:#231f20;}.b,.e{fill:#fff;}.c,.d,.f{fill:none;}.c,.e{stroke:#231f20;stroke-width:4px;}.c,.d,.e{stroke-miterlimit:10;}.d{stroke:#fff;stroke-width:3px;}</style>
  </defs>
  <title
     id="title3865">KWasm cover Rikard</title>
  <path
     class="f"
     d="m 7.9066164,72.427692 c -4.69,12.62 -7.43999995,31.319998 5.8999996,48.779998 q 1.9,2.47 3.86,4.9 V 53.917692 a 86.63,86.63 0 0 0 -9.7599996,18.51 z"
     id="path3905"
     inkscape:connector-curvature="0"
     style="fill:none" />
  <path
     class="f"
     d="m 102.95662,4.0076919 c -2.16,0 -4.240004,0.11 -6.200004,0.29 a 93,93 0 0 0 -31.24,9.1400001 h 67.590004 c -9.72,-7.3200001 -20.71,-9.4300001 -30.15,-9.4300001 z"
     id="path3907"
     inkscape:connector-curvature="0"
     style="fill:none" />
  <path
     class="f"
     d="m 145.46662,20.207692 a 239.82,239.82 0 0 1 21.35,33.07 v -35.84 h -23.6 c 0.78,0.89 1.54,1.77 2.25,2.77 z"
     id="path3909"
     inkscape:connector-curvature="0"
     style="fill:none" />
  <path
     class="f"
     d="m 60.766616,167.10769 a 172,172 0 0 0 20,12.29 19,19 0 0 1 -5.57,-12.29 z"
     id="path3911"
     inkscape:connector-curvature="0"
     style="fill:none" />
  <path
     class="f"
     d="m 21.666616,137.00769 v 26.1 h 27.21 a 225.8,225.8 0 0 1 -27.21,-26.1 z"
     id="path3913"
     inkscape:connector-curvature="0"
     style="fill:none" />
  <path
     class="f"
     d="m 119.30662,54.877692 h -8.84 a 9.8,9.8 0 0 1 1.57,5.43 70.94,70.94 0 0 1 7.27,-5.43 z"
     id="path3915"
     inkscape:connector-curvature="0"
     style="fill:none" />
  <path
     class="f"
     d="m 178.19662,163.10769 c 5.75,-12.68 7.64,-28.76 5.34,-47.23 a 167.32,167.32 0 0 0 -12.7,-45.069998 v 92.299998 z"
     id="path3917"
     inkscape:connector-curvature="0"
     style="fill:none" />
  <path
     class="f"
     d="m 94.206616,181.00769 a 15.1,15.1 0 0 0 15.000004,-13.9 H 79.166616 a 15.11,15.11 0 0 0 15.04,13.9 z"
     id="path3919"
     inkscape:connector-curvature="0"
     style="fill:none" />
  <path
     class="f"
     d="M 166.83662,163.10769 V 62.107692 a 232.36,232.36 0 0 0 -24.52,-39.45 49.91,49.91 0 0 0 -4.59,-5.2 H 57.926616 a 128.11,128.11 0 0 0 -14.32,9.54 123.34,123.34 0 0 0 -21.94,21.47 v 82.439998 a 221.17,221.17 0 0 0 33.68,32.2 z m -61.17,-33.48 c -1.37,0 -2.06,-0.76 -2.06,-2.29 a 1.91,1.91 0 0 1 1.57,-1.93 c 0.08,0 1,-0.17 2.78,-0.49 q 0.6,0 0.6,-0.24 c 0,-0.48 -1.08,-2 -3.26,-4.59 l -21.830004,-26.209998 -3,3 v 21.999998 c 0,2.82 0.49,4.63 1.45,5.44 q 1.21,0.84 5.32,0.84 c 2.25,0 3.38,0.73 3.38,2.18 0,1.45 -0.69,2.29 -2,2.29 h -35.37 c -1.37,0 -2,-0.76 -2,-2.29 0,-1.53 1.08,-2.13 3.33,-2.13 q 4.59,0 5.68,-1.08 1.09,-1.08 1.08,-5.44 V 61.207692 q 0,-4.59 -1.81,-5.68 c -0.8,-0.4 -2.9,-0.6 -6.28,-0.6 -1.37,0 -2,-0.77 -2,-2.3 0,-1.53 0.68,-2.17 2,-2.17 h 35.27 c 1.36,0 2,0.72 2,2.17 0,1.45 -1.13,2.3 -3.38,2.3 q -4.59,0 -5.68,1.08 c -0.72,0.73 -1.09,2.54 -1.09,5.44 v 28.26 l 24.760004,-23.67 a 7.77,7.77 0 0 0 2.42,-5.68 5.69,5.69 0 0 0 -1.39,-3.8 4.46,4.46 0 0 0 -3.56,-1.63 c -1.21,0 -1.82,-0.77 -1.82,-2.3 0,-1.53 0.61,-2.17 1.82,-2.17 h 28.26 c 1.36,0 2.05,0.72 2.05,2.17 a 2.16,2.16 0 0 1 -1.93,2.18 c -1.05,0.16 -2.1,0.36 -3.14,0.6 a 29.71,29.71 0 0 0 -10.15,5.92 q -2.06,1.68 -8.81,8.09 l -12.510004,12.03 29.950004,35.859998 c 1.37,1.62 2.69,3.22 4,4.83 1.93,2 3.58,3 4.95,3 1.37,0 2.06,0.73 2.06,2.18 0,1.45 -0.69,2.29 -2.06,2.29 z"
     id="path3921"
     inkscape:connector-curvature="0"
     style="fill:none" />
  <path
     class="f"
     d="m 92.736616,83.977692 -6.52,6.28 24.520004,29.229998 a 8.38,8.38 0 0 1 2.29,5.19 v 0.53 h 14 l -4.1,-4.95 z"
     id="path3923"
     inkscape:connector-curvature="0"
     style="fill:none" />
  <path
     class="f"
     d="m 77.036616,54.877692 h -12.31 a 15,15 0 0 1 1.08,6.28 v 57.479998 a 17.47,17.47 0 0 1 -1,6.52 h 12.19 a 15,15 0 0 1 -1.08,-6.28 V 61.397692 a 15.71,15.71 0 0 1 1.12,-6.52 z"
     id="path3925"
     inkscape:connector-curvature="0"
     style="fill:none" />
  <path
     class="f"
     d="m 41.166616,23.797692 c 3,-2.27 6,-4.39 9.06,-6.36 h -28.56 v 24.77 a 129.27,129.27 0 0 1 19.5,-18.41 z"
     id="path3927"
     inkscape:connector-curvature="0"
     style="fill:none" />
  <path
     class="f"
     d="m 166.83662,312.26769 v -127.6 c -0.47,0.39 -1,0.78 -1.43,1.15 -9.82,7.53 -22,11.31 -35.71,11.31 -11.7,0 -24.53,-2.74 -38.000004,-8.24 a 168.53,168.53 0 0 1 -37.7,-21.78 h -32.33 v 145.16 z m -27.37,-69.7 16.65,56.81 h -14.4 l -3.37,-11.75 h -14.63 l -2.6,11.75 h -14.08 l 13.75,-56.81 z m -75.660004,0 5.32,28.35 6.4,-28.35 h 12.49 l 5.8,28.84 6.1,-28.84 h 13.850004 l -13.55,56.81 H 87.216616 l -5.78,-28.63 -6.2,28.63 h -13.27 l -12.2,-56.81 z"
     id="path3929"
     inkscape:connector-curvature="0"
     style="fill:none" />
  <polygon
     class="f"
     points="454.93,642.32 451.51,657.69 459.86,657.69 455.93,642.32 "
     id="polygon3931"
     style="fill:none"
     transform="translate(-325.03338,-382.73231)" />
  <path
     class="f"
     d="M 170.83662,316.26769 H 17.666616 v -149.16 h -6.92 v 157 H 177.74662 v -151.79 a 53.12,53.12 0 0 1 -6.91,8.68 z"
     id="path3933"
     inkscape:connector-curvature="0"
     style="fill:none" />
  <path
     class="f"
     d="m 113.27662,167.10769 a 19.13,19.13 0 0 1 -19.070004,17.9 c -0.55,0 -1.1,0 -1.64,-0.08 l 0.59,0.25 c 28.000004,11.4 52.810004,10.5 69.810004,-2.54 a 46.92,46.92 0 0 0 3.87,-3.31 v -12.22 z"
     id="path3935"
     inkscape:connector-curvature="0"
     style="fill:none" />
  <path
     class="f"
     d="m 176.19662,167.10769 h -5.36 v 7.92 a 52.14,52.14 0 0 0 5.36,-7.92 z"
     id="path3937"
     inkscape:connector-curvature="0"
     style="fill:none" />
  <path
     d="m 187.46662,115.38769 c -2.19,-17.589998 -7.92,-35.999998 -16.67,-54.219998 v -47.73 h -31.5 c -11,-10.2000001 -25.69,-14.7300001 -42.910004,-13.12000015 -12.82,1.20000005 -26.42,5.76000005 -39.51,13.12000015 h -39.21 v 33.69 a 93.57,93.57 0 0 0 -13.5099996,23.9 c -7.23,19.46 -4.99999995,37.639998 6.4699996,52.589998 q 3.44,4.49 7,8.75 v 30.74 H 6.7466164 v 165 H 181.74662 v -163.14 c 6.13,-13.38 8.16,-30.26 5.72,-49.58 z m -108.300004,51.72 h 30.080004 a 15.09,15.09 0 0 1 -30.080004,0 z m 1.55,12.29 a 172,172 0 0 1 -20,-12.29 h 14.38 a 19,19 0 0 0 5.62,12.29 z m 13.49,5.61 a 19.13,19.13 0 0 0 19.070004,-17.9 h 53.56 v 12.22 a 46.92,46.92 0 0 1 -3.87,3.31 c -17,13 -41.79,13.94 -69.810004,2.54 l -0.59,-0.25 c 0.54,0.05 1.09,0.08 1.64,0.08 z m 76.630004,-17.9 h 5.36 a 52.14,52.14 0 0 1 -5.36,7.92 z m -4,-149.669998 v 35.84 a 239.82,239.82 0 0 0 -21.37,-33.07 c -0.73,-1 -1.49,-1.88 -2.27,-2.77 z M 96.756616,4.2976919 c 2,-0.18 4.000004,-0.29 6.200004,-0.29 9.44,0 20.43,2.11 30.15,9.4300001 H 65.516616 a 93,93 0 0 1 31.24,-9.1400001 z m -75.09,13.1400001 h 28.56 c -3.06,2 -6.09,4.09 -9.06,6.36 a 129.27,129.27 0 0 0 -19.5,18.41 z m 0,31 a 123.34,123.34 0 0 1 21.94,-21.46 128.11,128.11 0 0 1 14.32,-9.54 h 79.800004 a 49.91,49.91 0 0 1 4.59,5.2 232.36,232.36 0 0 1 24.52,39.45 V 163.08769 H 55.346616 a 221.17,221.17 0 0 1 -33.68,-32.18 z m 0,88.539998 a 225.8,225.8 0 0 0 27.21,26.1 h -27.21 z m 32.33,30.1 a 168.53,168.53 0 0 0 37.65,21.78 c 13.520004,5.5 26.350004,8.24 38.000004,8.24 13.73,0 25.89,-3.78 35.71,-11.31 0.48,-0.37 1,-0.76 1.43,-1.15 v 127.6 H 21.666616 v -145.13 z m -40.19,-45.87 C 0.43661645,103.76769 3.2166164,85.067692 7.9066164,72.447692 a 86.63,86.63 0 0 1 9.7599996,-18.51 v 72.169998 q -1.95,-2.45 -3.86,-4.9 z m 163.940004,202.87 H 10.746616 v -157 h 6.92 v 149.19 H 170.83662 v -135.27 a 53.12,53.12 0 0 0 6.91,-8.68 z m 0.45,-161 h -7.36 V 70.807692 a 167.32,167.32 0 0 1 12.7,45.069998 c 2.3,18.47 0.41,34.55 -5.34,47.23 z"
     id="path3939"
     inkscape:connector-curvature="0" />
  <path
     class="b"
     d="m 117.89662,295.37769 2.6,-11.75 h 20.87 l 3.37,11.75 h 6 l -14.27,-48.81 h -12.53 l -11.82,48.81 z m 8.79,-39.8 h 7.32 l 6,23.38 h -18.54 z"
     id="path3941"
     inkscape:connector-curvature="0"
     style="fill:#ffffff" />
  <polygon
     class="b"
     points="408.21,642.17 415.47,678.11 422.07,678.11 433.71,629.3 428.17,629.3 420.48,665.68 417.08,665.68 409.75,629.3 403.74,629.3 395.63,665.24 392.25,665.24 385.5,629.3 379.75,629.3 390.23,678.11 396.99,678.11 404.77,642.17 "
     id="polygon3943"
     style="fill:#ffffff"
     transform="translate(-325.03338,-382.73231)" />
  <path
     d="m 75.186616,299.37769 6.2,-28.63 5.78,28.63 h 13.000004 l 13.55,-56.81 H 99.896616 l -6.1,28.84 -5.8,-28.84 h -12.53 l -6.4,28.35 -5.32,-28.35 h -14 l 12.2,56.81 z m -14.72,-52.81 6.75,35.94 h 3.38 l 8.11,-35.94 h 6 l 7.33,36.38 h 3.43 l 7.690004,-36.38 h 5.55 l -11.650004,48.81 h -6.59 l -7.27,-35.94 h -3.44 l -7.78,35.94 h -6.76 l -10.5,-48.81 z"
     id="path3945"
     inkscape:connector-curvature="0" />
  <path
     d="m 121.11662,299.37769 2.6,-11.75 h 14.63 l 3.37,11.75 h 14.38 l -16.63,-56.81 h -18.68 l -13.75,56.81 z m 15.35,-52.81 14.31,48.81 h -6 l -3.37,-11.75 h -20.94 l -2.6,11.75 h -5.78 l 11.82,-48.81 z"
     id="path3947"
     inkscape:connector-curvature="0" />
  <path
     d="m 134.00662,255.57769 h -7.32 l -5.22,23.38 h 18.49 z m -3.11,4 3.93,15.38 h -8.36 l 3.42,-15.38 z"
     id="path3949"
     inkscape:connector-curvature="0" />
  <path
     d="m 137.30662,127.33769 c 0,-1.45 -0.69,-2.18 -2.06,-2.18 -1.37,0 -3,-1 -4.95,-3 -1.29,-1.61 -2.61,-3.21 -4,-4.83 l -29.930004,-35.879998 12.560004,-12.08 q 6.75,-6.41 8.81,-8.09 a 29.71,29.71 0 0 1 10.15,-5.92 c 1,-0.24 2.09,-0.44 3.14,-0.6 a 2.16,2.16 0 0 0 1.93,-2.18 c 0,-1.45 -0.69,-2.17 -2.05,-2.17 h -28.26 c -1.21,0 -1.82,0.72 -1.82,2.17 0,1.45 0.61,2.3 1.82,2.3 a 4.46,4.46 0 0 1 3.56,1.63 5.69,5.69 0 0 1 1.39,3.8 7.77,7.77 0 0 1 -2.42,5.68 l -24.710004,23.67 v -28.26 c 0,-2.9 0.37,-4.71 1.09,-5.44 0.72,-0.73 2.62,-1.08 5.68,-1.08 2.25,0 3.38,-0.77 3.38,-2.3 0,-1.53 -0.69,-2.17 -2,-2.17 h -35.37 c -1.37,0 -2,0.72 -2,2.17 0,1.45 0.68,2.3 2,2.3 3.38,0 5.48,0.2 6.28,0.6 q 1.81,1.1 1.81,5.68 v 57.479998 q 0,4.35 -1.08,5.44 -1.08,1.09 -5.68,1.13 c -2.25,0 -3.38,0.73 -3.38,2.18 0,1.45 0.68,2.29 2,2.29 h 35.27 c 1.36,0 2,-0.76 2,-2.29 0,-1.53 -1,-2.18 -3.28,-2.18 q -4.11,0 -5.32,-0.84 c -1,-0.81 -1.45,-2.62 -1.45,-5.44 V 96.927692 l 3,-3 21.860004,26.209998 c 2.18,2.58 3.26,4.11 3.26,4.59 q 0,0.24 -0.6,0.24 c -1.77,0.32 -2.7,0.49 -2.78,0.49 a 1.91,1.91 0 0 0 -1.57,1.93 c 0,1.53 0.69,2.29 2.06,2.29 h 29.58 c 1.39,-0.05 2.08,-0.81 2.08,-2.34 z m -18,-72.459998 a 70.94,70.94 0 0 0 -7.24,5.43 9.8,9.8 0 0 0 -1.57,-5.43 z M 77.036616,125.20769 h -12.19 a 17.47,17.47 0 0 0 1,-6.52 V 61.207692 a 15,15 0 0 0 -1.08,-6.28 h 12.31 a 15.71,15.71 0 0 0 -1.08,6.52 v 57.479998 a 15,15 0 0 0 1.04,6.28 z m 36.000004,0 v -0.48 a 8.38,8.38 0 0 0 -2.29,-5.19 l -24.520004,-29.229998 6.52,-6.28 30.190004,36.179998 4.1,4.95 z"
     id="path3951"
     inkscape:connector-curvature="0" />
  <path
     class="a"
     d="m 233.12662,385.38769 h 45.41 a 23.68,23.68 0 1 0 0,-4 h -45.41 v -112.5 h 45.41 a 23.68,23.68 0 1 0 0,-4 h -45.41 v -101.78 h -0.08 v -0.39 h -51.36 v 4 h 47.44 v 98.17 0 4 0 112.5 0 4 0 104.56 0 4 h 49.44 a 23.67,23.67 0 1 0 0,-4 h -45.44 z m 69,-21.68 a 19.68,19.68 0 1 1 -19.66,19.68 19.7,19.7 0 0 1 19.66,-19.68 z m 0,-116.5 a 19.68,19.68 0 1 1 -19.66,19.67 19.69,19.69 0 0 1 19.66,-19.67 z m 0,225.07 a 19.68,19.68 0 1 1 -19.66,19.67 19.69,19.69 0 0 1 19.66,-19.67 z"
     id="path3957"
     inkscape:connector-curvature="0"
     style="fill:#231f20" />
  <polygon
     class="a"
     points="625.93,656.99 617.55,647.84 614.6,650.54 626.85,663.91 639.34,639.89 635.79,638.04 "
     id="polygon3959"
     style="fill:#231f20"
     transform="translate(-325.03338,-382.73231)" />
  <polygon
     class="a"
     points="625.93,773.5 617.55,764.34 614.6,767.04 626.85,780.41 639.34,756.39 635.79,754.55 "
     id="polygon3961"
     style="fill:#231f20"
     transform="translate(-325.03338,-382.73231)" />
  <polygon
     class="a"
     points="625.93,882.06 617.55,872.91 614.6,875.61 626.85,888.98 639.34,864.96 635.79,863.11 "
     id="polygon3963"
     style="fill:#231f20"
     transform="translate(-325.03338,-382.73231)" />
</svg>
